# Blender 4.2.0
# www.blender.org
mtllib skybox.mtl
o Cube
v 50.000000 50.000000 -50.000000
v 50.000000 -50.000000 -50.000000
v 50.000000 50.000000 50.000000
v 50.000000 -50.000000 50.000000
v -50.000000 50.000000 -50.000000
v -50.000000 -50.000000 -50.000000
v -50.000000 50.000000 50.000000
v -50.000000 -50.000000 50.000000
vn -0.0000 1.0000 -0.0000
vn -0.0000 -0.0000 1.0000
vn -1.0000 -0.0000 -0.0000
vn -0.0000 -1.0000 -0.0000
vn 1.0000 -0.0000 -0.0000
vn -0.0000 -0.0000 -1.0000
vt 0.500000 0.999999
vt 0.249999 0.666668
vt 0.500000 0.666667
vt 0.000001 0.333333
vt 0.250000 0.333333
vt 0.999996 0.666684
vt 0.758957 0.333332
vt 1.000000 0.333334
vt 0.499999 0.333333
vt 0.250001 0.000001
vt 0.500001 -0.000001
vt 0.758808 0.666666
vt 0.250006 0.999988
vt 0.000001 0.666668
s 0
usemtl Material
f 5/1/1 3/2/1 1/3/1
f 3/2/2 8/4/2 4/5/2
f 7/6/3 6/7/3 8/8/3
f 2/9/4 8/10/4 6/11/4
f 1/3/5 4/5/5 2/9/5
f 5/12/6 2/9/6 6/7/6
f 5/1/1 7/13/1 3/2/1
f 3/2/2 7/14/2 8/4/2
f 7/6/3 5/12/3 6/7/3
f 2/9/4 4/5/4 8/10/4
f 1/3/5 3/2/5 4/5/5
f 5/12/6 1/3/6 2/9/6
